<mxfile host="app.diagrams.net" modified="2023-06-22T06:35:05.582Z" agent="Mozilla/5.0 (Windows NT 10.0; Win64; x64) AppleWebKit/537.36 (KHTML, like Gecko) Chrome/114.0.0.0 Safari/537.36" version="21.5.0" etag="24jq3SVHDsc0-zcsuItc" type="github">
  <diagram name="PÃ¡gina-1" id="9xIO8dP7hyX9Q0cc-_Gq">
    <mxGraphModel>
      <root>
        <mxCell id="0" />
        <mxCell id="1" parent="0" />
      </root>
    </mxGraphModel>
  </diagram>
</mxfile>
